<svg width="302" height="512" viewBox="0 0 302 512" fill="none" xmlns="http://www.w3.org/2000/svg">
<path d="M293.231 236.022L65.3843 8.17946C60.1145 2.90549 53.0798 1.52588e-05 45.5788 1.52588e-05C38.0779 1.52588e-05 31.0431 2.90549 25.7733 8.17946L8.994 24.9546C-1.92441 35.8855 -1.92441 53.6513 8.994 64.5656L200.322 255.894L8.78171 447.434C3.5119 452.708 0.602264 459.739 0.602264 467.236C0.602264 474.741 3.5119 481.771 8.78171 487.05L25.561 503.821C30.835 509.095 37.8656 512 45.3665 512C52.8675 512 59.9022 509.095 65.172 503.821L293.231 275.77C298.513 270.479 301.414 263.416 301.398 255.906C301.414 248.368 298.513 241.308 293.231 236.022Z" fill="black"/>
</svg>
