<svg width="512" height="512" viewBox="0 0 512 512" fill="none" xmlns="http://www.w3.org/2000/svg">
<path d="M48.536 508.793C35.9832 509.523 23.638 505.35 14.1036 497.154C-4.70011 478.238 -4.70011 447.688 14.1036 428.773L425.842 17.0325C445.4 -1.26805 476.089 -0.250734 494.389 19.3067C510.938 36.9925 511.903 64.1759 496.648 82.9891L82.4829 497.154C73.0715 505.232 60.9243 509.397 48.536 508.793V508.793Z" fill="black"/>
<path d="M459.791 508.793C447.069 508.739 434.875 503.689 425.842 494.73L14.102 82.9876C-3.31866 62.6443 -0.950233 32.0289 19.393 14.6066C37.5499 -0.942244 64.3276 -0.942244 82.4829 14.6066L496.648 426.347C516.2 444.652 517.211 475.343 498.906 494.896C498.178 495.673 497.425 496.426 496.648 497.154C486.506 505.973 473.16 510.187 459.791 508.793V508.793Z" fill="black"/>
</svg>
