<svg width="512" height="512" viewBox="0 0 512 512" fill="none" xmlns="http://www.w3.org/2000/svg">
<g clip-path="url(#clip0_9_106)">
<path fill-rule="evenodd" clip-rule="evenodd" d="M256 512H128C94.0527 511.999 61.4963 498.512 37.492 474.508C13.4876 450.504 0.0014851 417.947 0 384L0 128C0.0014851 94.0527 13.4876 61.4963 37.492 37.492C61.4963 13.4876 94.0527 0.0014851 128 0L384 0C417.948 0 450.505 13.4857 474.51 37.4903C498.514 61.495 512 94.0523 512 128V384C512 417.948 498.514 450.505 474.51 474.51C450.505 498.514 417.948 512 384 512H336C336 501.391 331.786 491.217 324.284 483.716C316.783 476.214 306.609 472 296 472C285.391 472 275.217 476.214 267.716 483.716C260.214 491.217 256 501.391 256 512Z" fill="#3764B9"/>
<path fill-rule="evenodd" clip-rule="evenodd" d="M240 144H384C402.458 143.999 420.211 136.909 433.592 124.195C446.974 111.481 454.961 94.114 455.906 75.68C456.851 57.2461 450.68 39.1533 438.668 25.1381C426.657 11.123 409.721 2.25586 391.36 0.368C388.912 0.232 386.488 0 384 0H128C94.0527 0.0014851 61.4963 13.4876 37.492 37.492C13.4876 61.4963 0.0014851 94.0527 0 128L0 384C0.00148515 320.348 25.2876 259.304 70.296 214.296C115.304 169.288 176.348 144.001 240 144" fill="#507DD2"/>
<path fill-rule="evenodd" clip-rule="evenodd" d="M384 256C358.684 256 333.937 263.507 312.887 277.572C291.838 291.637 275.431 311.628 265.743 335.017C256.055 358.405 253.521 384.142 258.459 408.972C263.398 433.801 275.589 456.609 293.49 474.51C311.391 492.411 334.199 504.602 359.028 509.541C383.858 514.479 409.595 511.945 432.983 502.257C456.372 492.569 476.363 476.162 490.428 455.113C504.493 434.063 512 409.316 512 384V128C512 161.948 498.514 194.505 474.51 218.51C450.505 242.514 417.948 256 384 256Z" fill="#1E4BA0"/>
<path fill-rule="evenodd" clip-rule="evenodd" d="M416 144C416 148.243 414.314 152.313 411.314 155.314C408.313 158.314 404.243 160 400 160H352C347.757 160 343.687 161.686 340.686 164.686C337.686 167.687 336 171.757 336 176V240H396.48C398.847 240 401.185 240.525 403.324 241.538C405.464 242.55 407.352 244.025 408.853 245.855C410.354 247.686 411.43 249.827 412.003 252.123C412.577 254.42 412.634 256.815 412.17 259.136C409.199 273.992 405.164 294.168 402.57 307.136C401.845 310.763 399.885 314.027 397.025 316.373C394.164 318.718 390.579 320 386.88 320H336V512H256V320H208C203.757 320 199.687 318.314 196.686 315.314C193.686 312.313 192 308.243 192 304V256C192 251.757 193.686 247.687 196.686 244.686C199.687 241.686 203.757 240 208 240H256V176C256 150.539 266.114 126.121 284.118 108.118C302.121 90.1143 326.539 80 352 80H400C404.243 80 408.313 81.6857 411.314 84.6863C414.314 87.6869 416 91.7565 416 96V144Z" fill="white"/>
</g>
<defs>
<clipPath id="clip0_9_106">
<rect width="512" height="512" fill="white"/>
</clipPath>
</defs>
</svg>
