<svg width="512" height="512" viewBox="0 0 512 512" fill="none" xmlns="http://www.w3.org/2000/svg">
<g clip-path="url(#clip0_5_23)">
<path fill-rule="evenodd" clip-rule="evenodd" d="M384 512H128C94.0527 511.999 61.4963 498.512 37.492 474.508C13.4876 450.504 0.0014851 417.947 0 384L0 128C0.0014851 94.0527 13.4876 61.4963 37.492 37.492C61.4963 13.4876 94.0527 0.0014851 128 0L384 0C417.948 0 450.505 13.4857 474.51 37.4903C498.514 61.495 512 94.0523 512 128V384C512 417.948 498.514 450.505 474.51 474.51C450.505 498.514 417.948 512 384 512Z" fill="#2D2D2D"/>
<path fill-rule="evenodd" clip-rule="evenodd" d="M240 144H384C402.458 143.999 420.211 136.909 433.592 124.195C446.974 111.481 454.961 94.114 455.906 75.68C456.851 57.2461 450.68 39.1533 438.668 25.1381C426.657 11.123 409.721 2.25586 391.36 0.368C388.912 0.232 386.488 0 384 0H128C94.0527 0.0014851 61.4963 13.4876 37.492 37.492C13.4876 61.4963 0.0014851 94.0527 0 128L0 384C0.00148515 320.348 25.2876 259.304 70.296 214.296C115.304 169.288 176.348 144.001 240 144" fill="#464646"/>
<path fill-rule="evenodd" clip-rule="evenodd" d="M384 256C358.684 256 333.937 263.507 312.887 277.572C291.838 291.637 275.431 311.628 265.743 335.017C256.055 358.405 253.521 384.142 258.459 408.972C263.398 433.801 275.589 456.609 293.49 474.51C311.391 492.411 334.199 504.602 359.028 509.541C383.858 514.479 409.595 511.945 432.983 502.257C456.372 492.569 476.363 476.162 490.428 455.113C504.493 434.063 512 409.316 512 384V128C512 161.948 498.514 194.505 474.51 218.51C450.505 242.514 417.948 256 384 256Z" fill="#141414"/>
<path fill-rule="evenodd" clip-rule="evenodd" d="M208 402.809C208.001 405.454 207.346 408.057 206.094 410.387C204.842 412.717 203.032 414.7 200.826 416.159C198.62 417.618 196.087 418.507 193.453 418.747C190.819 418.987 188.167 418.571 185.734 417.535C148.584 401.422 118.12 373.002 99.4682 337.06C80.8167 301.118 75.1169 259.847 83.328 220.195C91.5391 180.543 113.16 144.93 144.551 119.351C175.943 93.7711 215.188 79.787 255.681 79.7519C296.175 79.7169 335.444 93.6331 366.88 119.158C398.315 144.683 419.998 180.259 428.277 219.897C436.557 259.535 430.929 300.815 412.34 336.789C393.75 372.764 363.335 401.236 326.214 417.414C323.8 418.441 321.169 418.854 318.557 418.615C315.945 418.377 313.432 417.495 311.244 416.048C309.056 414.602 307.26 412.635 306.018 410.325C304.776 408.014 304.126 405.432 304.126 402.809C304 383.91 304 360 304 360C304 347.27 298.943 335.061 289.941 326.059C288.941 325.059 287.903 324.109 286.827 323.208C286.541 322.97 286.335 322.649 286.238 322.289C286.141 321.93 286.157 321.549 286.284 321.199C286.41 320.849 286.642 320.546 286.947 320.332C287.252 320.118 287.616 320.004 287.988 320.004L288 320C309.217 320 329.566 311.571 344.569 296.569C359.571 281.566 368 261.217 368 240C368.027 222.633 362.378 205.733 351.911 191.874C354.635 179.704 354.372 167.055 351.144 155.008L349.784 149.93C349.235 147.88 347.894 146.133 346.057 145.072C344.219 144.011 342.036 143.724 339.986 144.273L334.908 145.633C323.696 148.637 313.305 154.13 304.508 161.704C299.079 160.567 293.547 159.996 288 160H224C218.455 159.997 212.924 160.568 207.496 161.705C198.699 154.131 188.308 148.638 177.096 145.634L172.018 144.274C169.968 143.725 167.785 144.012 165.947 145.073C164.11 146.134 162.769 147.881 162.22 149.93L160.86 155.009C157.632 167.055 157.369 179.705 160.093 191.875C149.625 205.733 143.974 222.633 144 240C144 261.217 152.429 281.566 167.431 296.569C182.434 311.571 202.783 320 224 320H224.012C224.384 320.002 224.746 320.118 225.05 320.332C225.354 320.546 225.584 320.849 225.711 321.199C225.837 321.548 225.853 321.928 225.757 322.287C225.66 322.646 225.456 322.967 225.171 323.206C224.098 324.109 223.06 325.06 222.059 326.059C215.012 333.107 210.333 342.173 208.671 352H200C192.548 352 185.199 350.265 178.534 346.932C171.869 343.6 166.071 338.761 161.6 332.8L161.595 332.794C158.616 328.821 154.753 325.597 150.312 323.377C145.871 321.156 140.973 320 136.008 320H136C133.878 320 131.843 320.843 130.343 322.343C128.843 323.843 128 325.878 128 328C128 330.122 128.843 332.157 130.343 333.657C131.843 335.157 133.878 336 136 336C138.44 336 140.838 336.632 142.961 337.834C145.084 339.036 146.859 340.767 148.114 342.859L149.356 344.928C155.043 354.405 163.087 362.249 172.705 367.694C182.323 373.139 193.187 376.001 204.24 376H208V402.809Z" fill="white"/>
</g>
<defs>
<clipPath id="clip0_5_23">
<rect width="512" height="512" fill="white"/>
</clipPath>
</defs>
</svg>
