<svg width="512" height="512" viewBox="0 0 512 512" fill="none" xmlns="http://www.w3.org/2000/svg">
<path d="M34.909 448.047H116.364V250.229L63.026 157.091L0 162.956V413.138C0 432.425 15.622 448.047 34.909 448.047Z" fill="#0085F7"/>
<path d="M395.636 448.047H477.091C496.378 448.047 512 432.425 512 413.138V162.956L449.065 157.091L395.637 250.229V448.047H395.636Z" fill="#00A94B"/>
<path d="M395.636 98.956L347.789 190.259L395.636 250.229L512 162.956V116.411C512 73.269 462.749 48.629 428.218 74.52L395.636 98.956Z" fill="#FFBC00"/>
<path fill-rule="evenodd" clip-rule="evenodd" d="M116.364 250.229L70.771 153.919L116.364 98.956L256 203.683L395.636 98.956V250.229L256 354.956L116.364 250.229Z" fill="#FF4131"/>
<path d="M0 116.411V162.956L116.364 250.229V98.956L83.782 74.52C49.251 48.629 0 73.269 0 116.411H0Z" fill="#E51C19"/>
</svg>
