<svg width="512" height="512" viewBox="0 0 512 512" fill="none" xmlns="http://www.w3.org/2000/svg">
<path d="M256 15.0588C180.706 15.0588 120.471 75.2941 120.471 150.588V210.824C94.8706 210.824 75.2941 230.4 75.2941 256V451.765C75.2941 477.365 94.8706 496.941 120.471 496.941H391.529C417.129 496.941 436.706 477.365 436.706 451.765V256C436.706 230.4 417.129 210.824 391.529 210.824V150.588C391.529 75.2941 331.294 15.0588 256 15.0588ZM406.588 256V451.765C406.588 460.8 400.565 466.824 391.529 466.824H120.471C111.435 466.824 105.412 460.8 105.412 451.765V256C105.412 246.965 111.435 240.941 120.471 240.941H135.529H376.471H391.529C400.565 240.941 406.588 246.965 406.588 256ZM150.588 210.824V150.588C150.588 91.8588 197.271 45.1765 256 45.1765C314.729 45.1765 361.412 91.8588 361.412 150.588V210.824H150.588Z" fill="black"/>
<path d="M256 286.118C230.4 286.118 210.824 305.694 210.824 331.294C210.824 350.871 222.871 367.435 240.941 373.459V406.588C240.941 415.624 246.965 421.647 256 421.647C265.035 421.647 271.059 415.624 271.059 406.588V373.459C289.129 367.435 301.176 350.871 301.176 331.294C301.176 305.694 281.6 286.118 256 286.118ZM256 346.353C246.965 346.353 240.941 340.329 240.941 331.294C240.941 322.259 246.965 316.235 256 316.235C265.035 316.235 271.059 322.259 271.059 331.294C271.059 340.329 265.035 346.353 256 346.353Z" fill="black"/>
</svg>
