<svg width="512" height="512" viewBox="0 0 512 512" fill="none" xmlns="http://www.w3.org/2000/svg">
<path d="M68.5798 313.694C71.6871 317.494 76.7198 317.494 79.8271 313.694L146.777 231.779C149.884 227.979 148.42 224.899 143.513 224.899H107.964C103.057 224.899 99.7207 220.968 100.775 216.175C119.054 132.931 193.341 70.4272 281.994 70.4272C384.32 70.4272 467.567 153.675 467.567 256.001C467.567 358.329 384.32 441.576 281.994 441.576C269.725 441.576 259.778 451.522 259.778 463.791C259.778 476.059 269.725 486.005 281.994 486.005C408.821 486.005 511.999 382.827 511.999 256.001C511.999 129.175 408.82 25.9965 281.994 25.9965C168.774 25.9965 74.4566 108.246 55.5165 216.123C54.6666 220.957 50.173 224.9 45.2652 224.9H4.89524C-0.0135478 224.9 -1.47331 227.98 1.63014 231.78L68.5798 313.694Z" fill="black"/>
</svg>
