<svg width="512" height="512" viewBox="0 0 512 512" fill="none" xmlns="http://www.w3.org/2000/svg">
<path d="M264.304 98.368C268.469 102.533 268.469 109.285 264.304 113.451C262.219 115.536 259.493 116.576 256.763 116.576C254.032 116.576 251.307 115.536 249.221 113.451C211.781 76.016 150.885 76.016 113.451 113.451C109.285 117.616 102.533 117.616 98.368 113.451C94.2027 109.285 94.2027 102.533 98.368 98.368C144.112 52.6186 218.555 52.6186 264.304 98.368ZM480 437.333C480 448.731 475.563 459.445 467.499 467.499C459.445 475.563 448.731 480 437.333 480C425.936 480 415.221 475.563 407.168 467.499L295.168 355.499C291.003 351.333 291.003 344.581 295.168 340.416L310.251 325.333L286.597 301.68C258.437 326.336 221.616 341.333 181.333 341.333C93.1093 341.333 21.3333 269.557 21.3333 181.333C21.3333 93.1093 93.1093 21.3333 181.333 21.3333C269.557 21.3333 341.333 93.1093 341.333 181.333C341.333 221.616 326.336 258.437 301.68 286.597L325.333 310.251L340.416 295.168C344.581 291.003 351.333 291.003 355.499 295.168L467.499 407.168C475.563 415.221 480 425.936 480 437.333ZM320 181.333C320 104.875 257.797 42.6666 181.333 42.6666C104.869 42.6666 42.6667 104.875 42.6667 181.333C42.6667 257.792 104.869 320 181.333 320C257.797 320 320 257.792 320 181.333ZM458.667 437.333C458.667 431.637 456.448 426.283 452.416 422.251L347.957 317.792L317.792 347.957L422.251 452.416C430.315 460.48 444.357 460.48 452.416 452.416C456.448 448.384 458.667 443.029 458.667 437.333Z" fill="black"/>
</svg>
