<svg width="512" height="512" viewBox="0 0 512 512" fill="none" xmlns="http://www.w3.org/2000/svg">
<g clip-path="url(#clip0_7_98)">
<path d="M256 0C114.615 0 0 114.615 0 256C0 397.385 114.615 512 256 512C397.385 512 512 397.385 512 256C512 114.615 397.385 0 256 0ZM367.415 371.526C364.159 377.096 358.301 380.201 352.284 380.202C349.284 380.202 346.245 379.43 343.468 377.808C297.464 350.923 244.319 346.602 207.827 347.712C167.405 348.941 137.761 356.921 137.467 357.002C128.148 359.548 118.519 354.064 115.963 344.747C113.408 335.432 118.872 325.808 128.186 323.243C129.522 322.875 161.421 314.211 205.78 312.748C231.908 311.886 257.062 313.707 280.533 318.159C310.26 323.798 337.377 333.697 361.133 347.58C369.481 352.458 372.292 363.18 367.415 371.526ZM399.96 303.931C396.105 310.529 389.166 314.207 382.038 314.208C378.484 314.208 374.884 313.295 371.594 311.372C317.103 279.526 254.149 274.41 210.925 275.723C163.043 277.18 127.929 286.632 127.581 286.728C116.546 289.739 105.138 283.249 102.11 272.213C99.0832 261.177 105.557 249.779 116.588 246.739C118.171 246.304 155.955 236.04 208.5 234.307C239.452 233.287 269.246 235.443 297.047 240.717C332.26 247.398 364.381 259.122 392.52 275.566C402.409 281.344 405.739 294.045 399.96 303.931ZM419.967 242.471C415.608 242.471 411.193 241.351 407.157 238.992C277.608 163.281 109.558 208.291 107.876 208.756C94.3313 212.488 80.3297 204.533 76.5991 190.99C72.8673 177.447 80.8218 163.444 94.3649 159.714C96.3056 159.178 142.653 146.589 207.104 144.464C245.072 143.214 281.616 145.858 315.717 152.327C358.91 160.52 398.311 174.902 432.824 195.073C444.952 202.16 449.039 217.738 441.951 229.866C437.222 237.959 428.711 242.471 419.967 242.471Z" fill="#00D95F"/>
</g>
<defs>
<clipPath id="clip0_7_98">
<rect width="512" height="512" fill="white"/>
</clipPath>
</defs>
</svg>
