<svg width="512" height="512" viewBox="0 0 512 512" fill="none" xmlns="http://www.w3.org/2000/svg">
<g clip-path="url(#clip0_10_113)">
<path d="M255.486 510.976C396.587 510.976 510.971 396.591 510.971 255.49C510.971 114.389 396.587 0.00430298 255.486 0.00430298C114.385 0.00430298 0 114.389 0 255.49C0 396.591 114.385 510.976 255.486 510.976Z" fill="#702C90"/>
<path d="M437.171 75.8381C536.945 175.612 536.945 337.384 437.164 437.166C337.389 536.94 175.61 536.94 75.8359 437.166L437.171 75.8381Z" fill="#5F2C80"/>
<path d="M505.389 308.778L395.537 192.874L378.928 208.615L365.281 194.221L330.414 227.257L300.04 195.213L285.3 209.191L243.876 167.764L224.879 186.757L206.725 168.607L189.326 186.003L207.48 204.157L193.611 218.023L146.89 171.295L137.135 181.046L125.371 169.278L107.972 186.677L245.333 324.038L220.708 348.663L211.434 339.388L203.696 347.118L195.966 339.388L183.948 351.406L331.907 499.369C419.117 472.066 486.186 399.261 505.389 308.778Z" fill="#4F286E"/>
<path d="M354.018 213.397C346.526 215.414 278.037 268.528 273.523 281.559C272.523 286.057 273.616 329.715 274.612 336.258C279.126 337.263 311.714 336.384 317.689 337.388L316.971 350.882C311.118 350.431 269.711 350.535 246.091 350.535C234.089 350.535 195.49 351.863 183.641 351.515L185.888 338.666C192.395 338.189 219.303 339.864 225.205 333.583C228.137 330.456 227.222 288.969 226.222 281.953C223.732 274.449 163.707 199.24 148.018 186.915H107.584V168.011H243.92V169.31C244.045 169.31 244.268 169.334 244.384 169.359L243.92 172.554V186.917H202.816C221.143 213.716 247.414 246.066 258.617 261.614L313.526 211.848H280.889L276.286 192.96H395.864L394.981 194.307C395.074 194.307 395.271 194.328 395.4 194.328L386.86 206.717C386.779 206.717 386.654 206.737 386.594 206.757L383.145 211.848H361.09C358.226 212.481 355.712 213.042 354.018 213.397ZM393.028 331.809L382.471 331.281L370.699 329.849L370.792 350.044L380.082 350.847L390.095 351.581L393.028 331.809ZM413.522 235.298C409.96 235.173 377.569 232.103 373.362 231.276L373.858 316.571L392.185 318.052L413.522 235.298Z" fill="white"/>
</g>
<defs>
<clipPath id="clip0_10_113">
<rect width="512" height="512" fill="white"/>
</clipPath>
</defs>
</svg>
